<svg height="32" viewBox="0 0 330 32" width="330" xmlns="http://www.w3.org/2000/svg"><g fill="none" fill-rule="evenodd"><path d="m0 7.512h2.847v2.846c.823-1.68 2.812-3.156 5.762-3.156 3.704 0 6.31 2.025 6.31 7.237v11.01h-2.846v-11.216c0-3.155-1.338-4.561-4.219-4.561-2.641 0-5.007 1.681-5.007 4.904v10.873h-2.847z" fill="#d8252c"/><path d="m32.418 16.635v-.275c0-4.527-2.503-6.791-5.522-6.791-3.327 0-5.865 2.195-5.865 6.791v.275c0 4.595 2.401 6.757 5.9 6.757 3.567 0 5.487-2.402 5.487-6.757zm-14.131-9.123h2.847v3.017c1.029-1.749 3.464-3.327 6.071-3.327 4.699 0 8.163 3.431 8.163 9.021v.274c0 5.488-3.224 9.261-8.163 9.261-2.95 0-5.042-1.475-6.071-3.259v9.192h-2.847z" fill="#d8252c"/><path d="m38.172 1.887c0-1.03.857-1.887 1.886-1.887s1.886.857 1.886 1.887c0 1.028-.857 1.885-1.886 1.885s-1.886-.857-1.886-1.885zm-2.127 27.712c2.024-.171 2.641-1.201 2.641-2.778v-19.309h2.847v19.069c0 3.43-1.509 5.281-5.488 5.419z" fill="#d8252c"/><path d="m59 31.94h2v-31.94h-2z" fill="#d8252c"/><g fill="#000105"><path d="m89.469 17.869v-.216c0-3.608-1.723-5.305-4.47-5.305-2.801 0-4.471 1.966-4.471 5.386v.215c0 3.556 1.912 5.252 4.282 5.252 2.612 0 4.659-1.722 4.659-5.332zm-.08 4.525c-.808 1.374-2.774 2.666-4.821 2.666-3.69 0-6.356-2.613-6.356-7.002v-.216c0-4.309 2.693-7.352 6.571-7.352 2.343 0 3.798 1.131 4.606 2.504v-2.262h2.235v18.987h-2.235z"/><path d="m95.299 19.646v-8.914h2.235v8.807c0 2.478 1.05 3.582 3.259 3.582 1.993 0 3.878-1.32 3.878-3.851v-8.538h2.236v14.085h-2.236v-2.235c-.646 1.32-2.208 2.478-4.47 2.478-2.801 0-4.902-1.536-4.902-5.414"/><path d="m118.796 19.889v-1.75h-1.939c-2.828 0-4.901.699-4.901 2.773 0 1.455.7 2.37 2.666 2.37 2.37 0 4.174-1.212 4.174-3.393zm-9.076 1.023c0-3.259 3.447-4.363 7.056-4.363h2.02v-1.024c0-2.234-.861-3.177-3.016-3.177-1.939 0-3.016.808-3.232 2.531h-2.235c.296-3.204 2.854-4.389 5.575-4.389 2.693 0 5.144 1.104 5.144 5.035v9.292h-2.236v-1.777c-1.05 1.319-2.316 2.02-4.389 2.02-2.613 0-4.687-1.266-4.687-4.148z"/><path d="m124.721 10.732h2.235v2.235c.647-1.319 2.209-2.477 4.524-2.477 2.909 0 4.956 1.588 4.956 5.682v8.645h-2.235v-8.806c0-2.478-1.051-3.582-3.313-3.582-2.074 0-3.932 1.319-3.932 3.85v8.538h-2.235z"/><path d="m140.411 21.289v-8.672h-2.02v-1.885h2.02v-3.205h2.235v3.205h3.286v1.885h-3.286v8.457c0 1.373.62 2.047 1.75 2.047.701 0 1.239-.107 1.724-.297v1.885c-.458.162-.996.297-1.912.297-2.559 0-3.797-1.508-3.797-3.717"/><path d="m148.424 19.646v-8.914h2.236v8.807c0 2.478 1.05 3.582 3.258 3.582 1.994 0 3.879-1.32 3.879-3.851v-8.538h2.235v14.085h-2.235v-2.235c-.647 1.32-2.209 2.478-4.471 2.478-2.801 0-4.902-1.536-4.902-5.414"/><path d="m163.807 10.732h2.235v2.155c.647-1.321 2.182-2.397 4.202-2.397 1.804 0 3.393.754 4.12 2.639.97-1.831 3.071-2.639 4.821-2.639 2.532 0 4.74 1.508 4.74 5.602v8.725h-2.235v-8.887c0-2.478-1.05-3.501-2.989-3.501-1.832 0-3.717 1.239-3.717 3.77v8.618h-2.235v-8.887c0-2.478-1.051-3.501-2.99-3.501-1.831 0-3.717 1.239-3.717 3.77v8.618h-2.235z"/><path d="m194.965 24.817h2.236v-14.085h-2.236zm-.403-18.502c0-.807.673-1.481 1.481-1.481s1.481.674 1.481 1.481c0 .808-.673 1.482-1.481 1.482s-1.481-.674-1.481-1.482z"/><path d="m201.003 10.732h2.236v2.235c.646-1.319 2.208-2.477 4.524-2.477 2.909 0 4.956 1.588 4.956 5.682v8.645h-2.236v-8.806c0-2.478-1.05-3.582-3.312-3.582-2.074 0-3.932 1.319-3.932 3.85v8.538h-2.236z"/><path d="m216.766 12.617h-2.02v-1.885h2.02v-2.289c0-2.855 1.4-4.525 4.201-4.525.727 0 1.104.081 1.67.27v1.884c-.405-.161-.97-.295-1.589-.295-1.454 0-2.047.996-2.047 2.424v2.531h3.447v1.885h-3.447v12.2h-2.235z"/><path d="m235.064 17.896v-.189c0-3.258-1.803-5.359-4.604-5.359-2.828 0-4.606 2.101-4.606 5.333v.215c0 3.205 1.75 5.305 4.606 5.305 2.827 0 4.604-2.127 4.604-5.305zm-11.526 0v-.215c0-4.229 2.936-7.191 6.922-7.191 3.985 0 6.921 2.936 6.921 7.163v.216c0 4.255-2.936 7.191-6.948 7.191-4.013 0-6.895-3.043-6.895-7.164z"/><path d="m240.292 10.732h2.235v2.532c.889-1.589 2.101-2.694 4.632-2.774v2.1c-2.828.135-4.632 1.023-4.632 4.498v7.729h-2.235z"/><path d="m249.575 10.732h2.236v2.155c.645-1.321 2.18-2.397 4.201-2.397 1.803 0 3.393.754 4.12 2.639.97-1.831 3.07-2.639 4.821-2.639 2.531 0 4.739 1.508 4.739 5.602v8.725h-2.235v-8.887c0-2.478-1.05-3.501-2.989-3.501-1.831 0-3.717 1.239-3.717 3.77v8.618h-2.235v-8.887c0-2.478-1.05-3.501-2.99-3.501-1.831 0-3.715 1.239-3.715 3.77v8.618h-2.236z"/><path d="m281.493 19.889v-1.75h-1.939c-2.828 0-4.902.699-4.902 2.773 0 1.455.701 2.37 2.666 2.37 2.37 0 4.175-1.212 4.175-3.393zm-9.076 1.023c0-3.259 3.447-4.363 7.056-4.363h2.02v-1.024c0-2.234-.862-3.177-3.016-3.177-1.94 0-3.017.808-3.233 2.531h-2.235c.297-3.204 2.855-4.389 5.575-4.389 2.693 0 5.145 1.104 5.145 5.035v9.292h-2.236v-1.777c-1.051 1.319-2.316 2.02-4.39 2.02-2.613 0-4.686-1.266-4.686-4.148z"/><path d="m287.745 21.289v-8.672h-2.019v-1.885h2.019v-3.205h2.235v3.205h3.286v1.885h-3.286v8.457c0 1.373.62 2.047 1.751 2.047.701 0 1.239-.107 1.724-.297v1.885c-.458.162-.997.297-1.913.297-2.558 0-3.797-1.508-3.797-3.717"/><path d="m295.948 24.817h2.236v-14.085h-2.236zm-.404-18.502c0-.807.673-1.481 1.481-1.481s1.482.674 1.482 1.481c0 .808-.674 1.482-1.482 1.482s-1.481-.674-1.481-1.482z"/><path d="m312.529 17.896v-.189c0-3.258-1.803-5.359-4.604-5.359-2.828 0-4.606 2.101-4.606 5.333v.215c0 3.205 1.75 5.305 4.606 5.305 2.827 0 4.604-2.127 4.604-5.305zm-11.526 0v-.215c0-4.229 2.935-7.191 6.922-7.191 3.985 0 6.921 2.936 6.921 7.163v.216c0 4.255-2.936 7.191-6.949 7.191-4.012 0-6.894-3.043-6.894-7.164z"/><path d="m317.757 10.732h2.235v2.235c.646-1.319 2.208-2.477 4.525-2.477 2.908 0 4.955 1.588 4.955 5.682v8.645h-2.236v-8.806c0-2.478-1.049-3.582-3.312-3.582-2.074 0-3.932 1.319-3.932 3.85v8.538h-2.235z"/></g></g></svg>